inDegrees=no
num_controls=7
num_derivatives=13
num_iterations=140
num_multipliers=7
num_parameters=0
num_slacks=7
num_states=26
objective=4.862057
objective_accelerations=0.579715
objective_balance=0.042313
objective_effort=0.472987
objective_height=3.716097
objective_ligament=0.050944
solver_duration=1508.289895
status=Solve_Succeeded
success=true
DataType=double
version=3
OpenSimVersion=4.4-2022-07-23-0e9fedc
endheader
time	/jointset/ground_pelvis/pelvis_tilt/value	/jointset/ground_pelvis/pelvis_tx/value	/jointset/ground_pelvis/pelvis_ty/value	/jointset/hip_l/hip_flexion_l/value	/jointset/hip_l/hip_adduction_l/value	/jointset/hip_l/hip_rotation_l/value	/jointset/back/lumbar_extension/value	/jointset/patellofemoral_l/patellar_flexion_l/value	/jointset/knee_l/knee_flexion_l/value	/jointset/knee_l/knee_adduction_l/value	/jointset/knee_l/knee_rotation_l/value	/jointset/ankle_l/ankle_angle_l/value	/jointset/subtalar_l/subtalar_angle_l/value	/jointset/ground_pelvis/pelvis_tilt/speed	/jointset/ground_pelvis/pelvis_tx/speed	/jointset/ground_pelvis/pelvis_ty/speed	/jointset/hip_l/hip_flexion_l/speed	/jointset/hip_l/hip_adduction_l/speed	/jointset/hip_l/hip_rotation_l/speed	/jointset/back/lumbar_extension/speed	/jointset/patellofemoral_l/patellar_flexion_l/speed	/jointset/knee_l/knee_flexion_l/speed	/jointset/knee_l/knee_adduction_l/speed	/jointset/knee_l/knee_rotation_l/speed	/jointset/ankle_l/ankle_angle_l/speed	/jointset/subtalar_l/subtalar_angle_l/speed	/forceset/tau_hip_flexion_l	/forceset/tau_hip_adduction_l	/forceset/tau_hip_rotation_l	/forceset/tau_knee_flexion_l	/forceset/tau_ankle_angle_l	/forceset/tau_subtalar_angle_l	/forceset/tau_lumbar_extension	lambda_cid13_p0	lambda_cid13_p1	lambda_cid13_p2	lambda_cid13_p3	lambda_cid13_p4	lambda_cid13_p5	lambda_cid14_p0	/jointset/ground_pelvis/pelvis_tilt/accel	/jointset/ground_pelvis/pelvis_tx/accel	/jointset/ground_pelvis/pelvis_ty/accel	/jointset/hip_l/hip_flexion_l/accel	/jointset/hip_l/hip_adduction_l/accel	/jointset/hip_l/hip_rotation_l/accel	/jointset/back/lumbar_extension/accel	/jointset/patellofemoral_l/patellar_flexion_l/accel	/jointset/knee_l/knee_flexion_l/accel	/jointset/knee_l/knee_adduction_l/accel	/jointset/knee_l/knee_rotation_l/accel	/jointset/ankle_l/ankle_angle_l/accel	/jointset/subtalar_l/subtalar_angle_l/accel	gamma_cid13_p0	gamma_cid13_p1	gamma_cid13_p2	gamma_cid13_p3	gamma_cid13_p4	gamma_cid13_p5	gamma_cid14_p0
1	-0.6327240516953019	-0.1402150719845224	0.5426397433435229	2.094395035650982	-0.2801605953490279	0.1993563098257034	-0.4363310702046467	1.363695001337825	1.363695001337938	-0.174523757650541	0.1745318069233902	0.1064688388090165	-0.01104719909864087	-0.01007714138358675	0.001013650793444235	-0.002655953370969343	0.01431586695925093	0.0008050279557249403	0.002595052063943473	-1.610266171434462e-06	0.006491721077633735	0.006491721077634373	8.915258913785887e-06	-5.799049814588211e-07	0.002726492462070824	0.001419969362247588	-0.4335459092988971	-0.02442477989169761	-0.01382414294956759	-0.3007048214643864	0.1767624542478015	0.01502904633678938	0.3513844233537461	8.893877151310978	-7.502228332023663	0.1286975695134257	9.094273260445831	-740.717380894862	-48.90633409143708	-0.03860948636431145	1.427926689711732	0.1449871192915556	1.967127012792259	-6.616140542933886	-0.6184788474681031	-2.031327797291117	-0.01274075748633523	-5.250033358140147	-5.250033358139762	-0.05289414834222156	0.01501983263414436	-0.3480176732046999	-0.6936695226594708	3.900893721906668e-10	2.265482814812815e-09	-6.052027023987045e-09	-1.075900787047663e-10	9.278166750258485e-10	-3.70559438765467e-09	1.284246601493666e-09
1.01	-0.6327538757865553	-0.1401976765007809	0.5427115109791049	2.094207821583345	-0.280182544373518	0.1992791876732128	-0.4363310431213853	1.363497549297484	1.363497549297632	-0.1745236245787329	0.1745317820575815	0.1064790179159093	-0.01106658337941154	0.00413060832935046	0.002472689496523612	0.01701387230715415	-0.0517869765489307	-0.005192399437647333	-0.01801779697322111	6.496384066864846e-06	-0.04598458443690844	-0.04598458443690643	1.630819618193454e-05	-3.628568687176574e-06	-0.0006832231979905154	-0.005292316272639314	-0.4337102451164196	-0.02439764631342053	-0.01384568022037987	-0.3007072574633807	0.1769039016751699	0.01506087013978811	0.3515573822462396	8.935039871289227	-7.524849756319404	0.1341235794293832	8.963562151845165	-740.8741307500836	-48.93610587369271	-0.03862042589185856	1.41994181833108	0.1474506164430002	1.967567448613147	-6.611600950455706	-0.5900136707809785	-2.076016139867131	0.007506796005569502	-5.246796030313083	-5.24679603031317	0.02734449010725257	-0.007861189343049888	-0.3363307864332217	-0.6593353474192428	-4.400367556107112e-09	-2.752774231039266e-09	3.430950497469836e-08	9.104394792591982e-09	-8.255227251137511e-09	4.298644457655527e-08	-6.973687683525161e-09
1.02	-0.6326410738394267	-0.1401654729558832	0.5429801082921262	2.093358730141482	-0.2802643954690435	0.1989959864937533	-0.4363309508876899	1.362775260825558	1.362775260825744	-0.1745234598824935	0.1745317479104318	0.1064553234113965	-0.01115295596923431	0.01844806629213602	0.003975263024658691	0.03670998211684683	-0.1180596078849336	-0.01117538625138425	-0.03862075332790545	1.14198233608702e-05	-0.09847556523952267	-0.09847556523952204	1.524014728638156e-05	-2.436171196769574e-06	-0.004048229819108507	-0.01197769244816443	-0.4338745809339661	-0.0243705127351598	-0.01386721749119109	-0.3007096934623729	0.1770453491025389	0.01509269394276873	0.3517303411387088	8.972126665603312	-7.546606047011803	0.1392388761657057	8.850909740016082	-741.0833626344094	-48.91835499370065	-0.03861858490789352	1.449868339681437	0.1536940843026567	1.97238383910607	-6.650098108498076	-0.6155907315410266	-2.029349260795057	-0.01337739967530563	-5.252968415754538	-5.252968415754705	-0.05458634557496019	0.0158680448733584	-0.3390758654161112	-0.6882876307871248	-6.949094499355972e-09	-8.39155140962998e-09	7.59014775186233e-08	1.241087809102224e-08	-1.601393029982905e-08	8.891733125283908e-08	-1.567973558624365e-08
1.03	-0.6323845207812933	-0.1401180034268049	0.5434457036693622	2.091846277083785	-0.2804059125107738	0.1985069047596341	-0.4363308211170051	1.361528119936537	1.361528119936661	-0.1745233440943969	0.1745317320804034	0.1063980877905412	-0.01130596989009176	0.03288436216550118	0.005528192354895674	0.05640419275431698	-0.1844389576432598	-0.01711637382352281	-0.05918472354007413	1.360798120345706e-05	-0.1509420715226914	-0.1509420715226978	7.728475776881628e-06	-1.337623635476143e-06	-0.007402672379550342	-0.01861270244793139	-0.4336964122848141	-0.02425663515843205	-0.01393048055122427	-0.3005805475013515	0.1771685057869346	0.01522734986312556	0.3516828393037906	9.029725418102936	-7.621012731541962	0.1577724751971844	8.696079340011584	-740.9379440879268	-48.96837270734527	-0.03865052313766387	1.443782120588851	0.1575279429462738	1.967199791026288	-6.633047697982927	-0.5816201423583062	-2.068308833871143	0.006877973293885209	-5.24190564736675	-5.241905647367733	0.02612857536222932	-0.007889692251653493	-0.3341924720685161	-0.6492611902230726	-9.474946646839013e-09	-1.403666042630987e-08	1.17506005578316e-07	1.565710116932117e-08	-2.375809925793413e-08	1.34840451069042e-07	-2.439035607689786e-08
